<svg width="21" height="21" viewBox="0 0 21 21" fill="none" xmlns="http://www.w3.org/2000/svg">
<g clip-path="url(#clip0_1427_163)">
<path d="M10.3052 0.00012207C4.61411 0.00012207 -6.10352e-05 4.61429 -6.10352e-05 10.3054C-6.10352e-05 15.9965 4.61411 20.6106 10.3052 20.6106C15.9963 20.6106 20.6105 15.9965 20.6105 10.3054C20.6105 4.61429 15.9963 0.00012207 10.3052 0.00012207ZM15.0228 14.8802C14.896 15.0906 14.672 15.2076 14.4431 15.2076C14.3237 15.2076 14.2031 15.1768 14.0948 15.1103C10.0357 12.6697 5.2258 14.0814 5.1778 14.0962C4.81965 14.2045 4.4418 14.0026 4.33349 13.6457C4.22518 13.2875 4.4258 12.9097 4.78272 12.8014C5.0018 12.7337 10.2067 11.1928 14.7926 13.9509C15.1126 14.1429 15.216 14.5589 15.0228 14.8802ZM16.3028 12.0272C16.1551 12.2845 15.8855 12.4285 15.6086 12.4285C15.4732 12.4285 15.3366 12.394 15.2111 12.3214C10.1132 9.38969 4.97718 11.0968 4.92549 11.114C4.50826 11.258 4.05287 11.0352 3.90887 10.6168C3.7661 10.1995 3.98887 9.74415 4.40611 9.60138C4.64365 9.52015 10.288 7.64568 16.0086 10.9343C16.3914 11.1546 16.5231 11.6445 16.3028 12.0272ZM16.8751 9.27523C16.7212 9.27523 16.5649 9.2383 16.4184 9.162C10.5415 6.07522 4.5058 7.92261 4.44549 7.9423C3.9261 8.10599 3.37349 7.81799 3.20979 7.29984C3.0461 6.78045 3.3341 6.22783 3.85226 6.06414C4.13041 5.97676 10.7384 3.9546 17.3341 7.41799C17.8154 7.67153 18.0012 8.26599 17.7477 8.74723C17.5717 9.08323 17.2295 9.27523 16.8751 9.27523Z" fill="#AEAEAE"/>
</g>
<defs>
<clipPath id="clip0_1427_163">
<rect width="20.6105" height="20.6105" fill="white"/>
</clipPath>
</defs>
</svg>
